<?xml version="1.0" standalone="no"?>
<!DOCTYPE svg PUBLIC "-//W3C//DTD SVG 20010904//EN"
 "http://www.w3.org/TR/2001/REC-SVG-20010904/DTD/svg10.dtd">
<svg version="1.0" xmlns="http://www.w3.org/2000/svg"
 width="256.000000pt" height="256.000000pt" viewBox="0 0 256.000000 256.000000"
 preserveAspectRatio="xMidYMid meet">

<g transform="translate(0.000000,256.000000) scale(0.100000,-0.100000)"
fill="#000000" stroke="none">
<path d="M1160 2554 c-14 -2 -56 -9 -95 -15 -103 -16 -247 -65 -355 -119 -358
-181 -601 -496 -686 -892 -25 -116 -26 -380 -1 -498 56 -262 162 -457 351
-646 193 -192 400 -304 666 -361 119 -25 372 -24 490 1 89 19 232 66 287 95
l33 16 -458 673 -457 673 -5 -428 c-3 -235 -8 -433 -12 -439 -14 -21 -67 -36
-103 -30 -68 13 -65 -13 -65 632 l0 583 26 20 c30 23 56 26 102 10 26 -9 110
-130 559 -806 290 -438 531 -800 535 -806 9 -15 128 73 212 157 278 278 414
675 365 1066 -67 546 -467 977 -1014 1095 -68 15 -325 28 -375 19z m631 -704
c18 -10 19 -27 19 -532 l0 -520 -90 137 -90 137 0 374 c0 361 1 375 20 394 22
22 106 28 141 10z"/>
</g>
</svg>
