<svg width="152" height="152" viewBox="0 0 152 152" fill="none" xmlns="http://www.w3.org/2000/svg">
<rect width="152" height="152" rx="5" fill="#F7F8F9"/>
<g clip-path="url(#clip0_875_76)">
<path fill-rule="evenodd" clip-rule="evenodd" d="M59.7302 86.1378C65.0716 86.1378 66.4134 83.997 66.4134 81.0626C66.4134 77.4564 63.1479 76.7822 60.4324 76.3416C58.3565 75.9898 57.41 75.8133 57.41 74.5512C57.41 73.6141 58.2337 73.2611 59.578 73.2611C61.2242 73.2611 61.6821 73.7309 61.8356 75.1086L66.1703 74.4648C65.8045 71.5025 64.1238 70.0067 59.6983 70.0067C54.8467 70.0067 53.1366 71.9418 53.1366 75.0223C53.1072 79.0106 56.8907 79.4207 59.6983 79.8906C61.4378 80.2131 62.1106 80.5064 62.1106 81.6492C62.1106 82.5888 61.5299 82.999 59.7903 82.999C57.8692 82.999 57.2885 82.6764 57.0442 81.1222L52.8322 81.7381C53.2287 84.8769 55.091 86.1378 59.7302 86.1378ZM74.8322 82.9126C72.7857 82.9126 72.0541 82.4707 72.0541 81.0054C72.0541 79.6849 72.7857 79.1566 74.9844 79.1566H77.1819V80.6816C77.1819 82.1482 76.449 82.9113 74.8322 82.9113V82.9126ZM72.9392 86.1378C75.3195 86.1378 76.3876 85.376 77.1512 84.2611V85.9334H81.4552V75.3143C81.4552 71.7666 80.0815 69.9775 75.3195 69.9775C70.711 69.9775 69.0943 71.2676 68.4522 74.4344L72.7256 75.0794C73.0006 73.7309 73.3971 73.3208 75.1686 73.3208C76.8762 73.3208 77.1512 74.0242 77.1512 75.1988V76.2832H75.1366C69.675 76.2832 67.8114 77.925 67.8114 81.2695C67.8114 84.5544 69.4908 86.1378 72.9405 86.1378H72.9392ZM83.1628 85.9321H87.5577V63.3023L83.1628 67.6284V85.9321ZM93.3864 76.3708V75.5784C93.3864 74.2007 94.0272 73.2611 95.9497 73.2611C97.812 73.2611 98.4234 74.0547 98.4234 75.5784V76.3708H93.3864ZM95.9497 86.167C101.016 86.167 102.358 83.8205 102.665 81.474L98.4835 80.8581C98.3006 82.2676 98.0256 83.0002 95.9509 83.0002C93.8443 83.0002 93.3864 81.973 93.3864 80.6232V79.3331H102.663V76.5168C102.663 72.5869 101.108 69.9775 95.9497 69.9775C90.8526 69.9775 89.113 72.6173 89.113 75.9606V80.1839C89.113 83.4396 90.882 86.167 95.9497 86.167ZM111.16 86.167C116.196 86.167 118.272 83.6148 118.272 80.1839V75.9619C118.272 72.4713 116.196 69.9788 111.16 69.9788C106.125 69.9788 104.11 72.4713 104.11 75.9619V80.1851C104.11 83.6173 106.093 86.167 111.16 86.167ZM111.16 82.764C109.39 82.764 108.505 81.8562 108.505 80.3896V75.8717C108.505 74.3772 109.39 73.4681 111.159 73.4681C112.928 73.4681 113.876 74.376 113.876 75.873V80.3896C113.876 81.8562 112.929 82.764 111.16 82.764ZM126.528 74.4534H124.174V85.927H119.777V74.4534L124.071 70.1273H130.822L126.528 74.4534ZM32.669 88.6977C35.7638 88.6977 38.7318 87.4772 40.9202 85.3048C43.1085 83.1323 44.3379 80.1859 44.3379 77.1136C44.3379 74.0413 43.1085 71.0948 40.9202 68.9224C38.7318 66.75 35.7638 65.5295 32.669 65.5295C29.5742 65.5295 26.6061 66.75 24.4178 68.9224C22.2294 71.0948 21 74.0413 21 77.1136C21 80.1859 22.2294 83.1323 24.4178 85.3048C26.6061 87.4772 29.5742 88.6977 32.669 88.6977ZM40.8345 74.7429H29.0313L24.5686 79.5884H36.6776L40.8345 74.7429Z" fill="black"/>
</g>
<defs>
<clipPath id="clip0_875_76">
<rect width="110" height="26" fill="white" transform="translate(21 63)"/>
</clipPath>
</defs>
</svg>
